<svg xmlns="http://www.w3.org/2000/svg" width="13.136" height="17" viewBox="0 0 13.136 17">
  <path id="Combined_Shape" data-name="Combined Shape" d="M.772,17A.773.773,0,0,1,0,16.227V.773A.773.773,0,0,1,.772,0H12.363a.774.774,0,0,1,.773.773V16.227a.774.774,0,0,1-.773.773Zm.773-1.546H11.59V5.409H1.546Zm0-11.59H11.59V1.545H1.545ZM8.827,14.771a.385.385,0,0,1-.386-.386V9.629a.386.386,0,0,1,.386-.386h1.6a.386.386,0,0,1,.387.386v4.756a.387.387,0,0,1-.387.386Zm-3.062,0a.385.385,0,0,1-.386-.386V12.779a.386.386,0,0,1,.386-.385h1.6a.386.386,0,0,1,.387.385v1.606a.387.387,0,0,1-.387.386Zm-3.062,0a.386.386,0,0,1-.386-.386V12.779a.386.386,0,0,1,.386-.385h1.6a.385.385,0,0,1,.386.385v1.606a.386.386,0,0,1-.386.386ZM5.765,11.62a.385.385,0,0,1-.386-.386v-1.6a.386.386,0,0,1,.386-.386h1.6a.386.386,0,0,1,.387.386v1.6a.387.387,0,0,1-.387.386Zm-3.062,0a.386.386,0,0,1-.386-.386v-1.6A.386.386,0,0,1,2.7,9.243h1.6a.385.385,0,0,1,.386.386v1.6a.386.386,0,0,1-.386.386ZM8.827,8.47a.386.386,0,0,1-.386-.386v-1.6a.387.387,0,0,1,.386-.387h1.6a.387.387,0,0,1,.387.387v1.6a.387.387,0,0,1-.387.386Zm-3.062,0a.386.386,0,0,1-.386-.386v-1.6a.387.387,0,0,1,.386-.387h1.6a.387.387,0,0,1,.387.387v1.6a.387.387,0,0,1-.387.386ZM2.7,8.47a.387.387,0,0,1-.386-.386v-1.6A.387.387,0,0,1,2.7,6.092h1.6a.386.386,0,0,1,.386.387v1.6a.386.386,0,0,1-.386.386Z" fill="#3cba54"/>
</svg>
