<svg xmlns="http://www.w3.org/2000/svg" width="23" height="18" viewBox="0 0 23 18">
  <path id="Combined_Shape" data-name="Combined Shape" d="M2.084,18a2.015,2.015,0,0,1-1.472-.612A2.015,2.015,0,0,1,0,15.917V2.084A2.015,2.015,0,0,1,.612.612,2.015,2.015,0,0,1,2.084,0H20.917a2.015,2.015,0,0,1,1.472.612A2.015,2.015,0,0,1,23,2.084V15.917A2.09,2.09,0,0,1,20.917,18Zm-.417-2.2a.6.6,0,0,0,.123.375.365.365,0,0,0,.293.158H20.917a.366.366,0,0,0,.293-.157.594.594,0,0,0,.123-.375V7.666H1.667ZM1.79,1.79a.4.4,0,0,0-.123.293V5H21.334V2.083a.423.423,0,0,0-.417-.416H2.084A.406.406,0,0,0,1.79,1.79ZM3.334,14.666V13H8.667v1.667Z" fill="#fa4a84"/>
</svg>
