<svg xmlns="http://www.w3.org/2000/svg" width="14.98" height="20" viewBox="0 0 14.98 20">
  <path id="Combined_Shape" data-name="Combined Shape" d="M12.253,19.829l-1.311-1.312L9.63,19.829A.581.581,0,0,1,9.215,20a.588.588,0,0,1-.414-.171L7.49,18.517,6.178,19.829a.587.587,0,0,1-.828,0L4.037,18.517,2.726,19.829a.588.588,0,0,1-.829,0L.172,18.1A.591.591,0,0,1,0,17.688V.586A.587.587,0,0,1,.586,0H14.393a.588.588,0,0,1,.587.586v17.1a.591.591,0,0,1-.172.415l-1.726,1.726a.588.588,0,0,1-.829,0Zm-.9-2.555,1.312,1.311,1.139-1.139V1.172H1.172V17.446l1.14,1.139,1.311-1.311a.586.586,0,0,1,.829,0l1.311,1.311,1.311-1.311a.586.586,0,0,1,.829,0l1.311,1.311,1.312-1.311a.584.584,0,0,1,.828,0ZM4.362,14.98a.586.586,0,0,1,0-1.173h6.276a.586.586,0,0,1,0,1.173Zm2.052-3.1H5.064V9.238H4.18V8.353h.885V7.271H4.18V6.393h.885V3.75H6.7L7.826,6.393h.759V3.75H9.941V6.393h.878v.878H9.941V8.353h.878v.885H9.941v2.641H8.382L7.261,9.238H6.415v2.641h0ZM8.486,8.353h.1V7.271H8.074Zm-2.071,0h.6L6.6,7.271H6.415Z" fill="#fa4a84"/>
</svg>
