<svg id="Bitmap" xmlns="http://www.w3.org/2000/svg" xmlns:xlink="http://www.w3.org/1999/xlink" width="40" height="40" viewBox="0 0 40 40">
  <defs>
    <clipPath id="clip-path">
      <rect id="Mask" width="40" height="40" rx="20" fill="#bb53f2"/>
    </clipPath>
  </defs>
  <rect id="Mask-2" data-name="Mask" width="40" height="40" rx="20" fill="#bb53f2"/>
  <g id="Bitmap-2" data-name="Bitmap" clip-path="url(#clip-path)">
    <path id="Shape" d="M11.464,22H1.508A1.51,1.51,0,0,1,0,20.492V1.508A1.51,1.51,0,0,1,1.508,0h9.956a1.51,1.51,0,0,1,1.508,1.508V20.492A1.509,1.509,0,0,1,11.464,22ZM9.316,19.179a.542.542,0,0,0,0,1.084h1.626a.542.542,0,1,0,0-1.084Zm-3.642,0a.542.542,0,0,0,0,1.084H7.3a.542.542,0,0,0,0-1.084Zm-3.644,0a.542.542,0,1,0,0,1.084H3.655a.542.542,0,1,0,0-1.084Zm7.286-2.067a.542.542,0,0,0,0,1.085h1.626a.542.542,0,1,0,0-1.085Zm-3.642,0a.542.542,0,0,0,0,1.085H7.3a.542.542,0,0,0,0-1.085Zm-3.644,0a.542.542,0,1,0,0,1.085H3.655a.542.542,0,1,0,0-1.085Zm7.286-2.067a.542.542,0,0,0,0,1.085h1.626a.542.542,0,1,0,0-1.085Zm-3.642,0a.542.542,0,0,0,0,1.085H7.3a.542.542,0,0,0,0-1.085Zm-3.644,0a.542.542,0,1,0,0,1.085H3.655a.542.542,0,1,0,0-1.085Zm7.286-2.067a.543.543,0,0,0,0,1.085h1.626a.543.543,0,0,0,0-1.085Zm-3.642,0a.543.543,0,0,0,0,1.085H7.3a.543.543,0,0,0,0-1.085Zm-3.644,0a.543.543,0,0,0,0,1.085H3.655a.543.543,0,0,0,0-1.085ZM1.455,1.768v9.959H11.516V1.768Z" transform="translate(14 9)" fill="#fff"/>
  </g>
</svg>
