<svg xmlns="http://www.w3.org/2000/svg" width="17.58" height="17.478" viewBox="0 0 17.58 17.478">
  <path id="Fill_1" data-name="Fill 1" d="M1.415,16.978H0A8.762,8.762,0,0,1,5.518,10.47,5.586,5.586,0,0,1,2.83,5.659a5.659,5.659,0,1,1,11.318,0,5.585,5.585,0,0,1-2.688,4.81,8.532,8.532,0,0,1,5.518,6.507H15.563a7.193,7.193,0,0,0-2.5-4.05,7.3,7.3,0,0,0-9.143,0,7.194,7.194,0,0,0-2.5,4.05ZM8.489,1.415a4.244,4.244,0,1,0,4.244,4.244A4.249,4.249,0,0,0,8.489,1.415Z" transform="translate(0.302 0.25)" fill="#fa4a84" stroke="#fa4a84" stroke-miterlimit="10" stroke-width="0.5"/>
</svg>
