<svg xmlns="http://www.w3.org/2000/svg" width="18.868" height="32" viewBox="0 0 18.868 32">
  <path id="Shape" d="M16.674,32H2.194A2.2,2.2,0,0,1,0,29.807V2.194A2.2,2.2,0,0,1,2.194,0h14.48a2.2,2.2,0,0,1,2.194,2.194V29.807A2.2,2.2,0,0,1,16.674,32Zm-3.123-4.1a.789.789,0,1,0,0,1.578h2.365a.789.789,0,0,0,0-1.578Zm-5.3,0a.789.789,0,1,0,0,1.578h2.363a.789.789,0,1,0,0-1.578Zm-5.3,0a.789.789,0,0,0,0,1.578H5.316a.789.789,0,1,0,0-1.578Zm10.6-3.007a.789.789,0,1,0,0,1.578h2.365a.789.789,0,0,0,0-1.578Zm-5.3,0a.789.789,0,1,0,0,1.578h2.363a.789.789,0,1,0,0-1.578Zm-5.3,0a.789.789,0,0,0,0,1.578H5.316a.789.789,0,1,0,0-1.578Zm10.6-3.007a.789.789,0,1,0,0,1.578h2.365a.789.789,0,0,0,0-1.578Zm-5.3,0a.789.789,0,1,0,0,1.578h2.363a.789.789,0,1,0,0-1.578Zm-5.3,0a.789.789,0,0,0,0,1.578H5.316a.789.789,0,1,0,0-1.578Zm10.6-3.007a.789.789,0,1,0,0,1.579h2.365a.789.789,0,0,0,0-1.579Zm-5.3,0a.789.789,0,1,0,0,1.579h2.363a.789.789,0,1,0,0-1.579Zm-5.3,0a.789.789,0,0,0,0,1.579H5.316a.789.789,0,1,0,0-1.579Zm-.835-16.3V17.057H16.752V2.571Z" fill="#bb53f2"/>
</svg>
