<svg xmlns="http://www.w3.org/2000/svg" width="40" height="40" viewBox="0 0 40 40">
  <g id="Group_3" data-name="Group 3" transform="translate(-257)">
    <circle id="Oval" cx="20" cy="20" r="20" transform="translate(257)" fill="#7e51ff" opacity="0.2"/>
    <path id="Combined_Shape" data-name="Combined Shape" d="M9.771,20a.434.434,0,0,1-.434-.433v-.621a8.455,8.455,0,0,1-.921.05,9.076,9.076,0,0,1-1.171-.079v.651A.434.434,0,0,1,6.813,20H4.18a.436.436,0,0,1-.433-.4v-.225A3.664,3.664,0,0,0,2.755,17a6.9,6.9,0,0,1-1.28-1.933,6.018,6.018,0,0,1-.5-1.329.068.068,0,0,1,0-.021A5.894,5.894,0,0,1,1.35,9.85a6.051,6.051,0,0,0,7.458-.072,6.1,6.1,0,0,0,2.117-3.316,1.893,1.893,0,0,1,.592-.975,3.554,3.554,0,0,1,1.938-.813.475.475,0,0,1,.474.242.475.475,0,0,1-.013.488,2.321,2.321,0,0,0-.354,1.913.644.644,0,0,1,.016.116,6.6,6.6,0,0,1,2.159,3.058h.587a.818.818,0,0,1,.809.8v1.971a.8.8,0,0,1-.8.8H15.78A6.535,6.535,0,0,1,13.855,17l-.013.011a.047.047,0,0,0-.013.011l-.087.075a2.6,2.6,0,0,0-.9,1.816v.651a.434.434,0,0,1-.434.433Zm2.6-10.021a.654.654,0,1,0,.654-.654A.655.655,0,0,0,12.375,9.979ZM4.2,7.889h-1V5.927H2.543V5.27H3.2v-.8H2.543V3.815H3.2V1.854H4.411l.84,1.961h.563V1.854H6.82V3.815h.653v.653H6.82v.8h.653v.657H6.82v1.96H5.663L4.83,5.927H4.2V7.889h0ZM5.74,5.27h.073v-.8H5.434ZM4.2,5.27h.445l-.311-.8H4.2Z" transform="translate(268 10)" fill="#7e51ff"/>
  </g>
</svg>
