<svg xmlns="http://www.w3.org/2000/svg" width="19.996" height="20" viewBox="0 0 19.996 20">
  <path id="Combined_Shape" data-name="Combined Shape" d="M0,11.073A8.938,8.938,0,0,1,8.927,2.146a.568.568,0,0,1,.567.567v7.793h7.793a.568.568,0,0,1,.567.567A8.927,8.927,0,0,1,0,11.073ZM3.234,5.756A7.79,7.79,0,1,0,16.7,11.64H8.927a.568.568,0,0,1-.567-.567V3.3A7.76,7.76,0,0,0,3.234,5.756Zm7.835,3.739a.568.568,0,0,1-.567-.567V.567A.568.568,0,0,1,11.069,0,8.926,8.926,0,0,1,20,8.9v.03a.568.568,0,0,1-.567.567Zm.567-1.13h7.205a7.845,7.845,0,0,0-1.931-4.59,7.747,7.747,0,0,0-5.274-2.615Z" fill="#9ca0a5"/>
</svg>
