<svg xmlns="http://www.w3.org/2000/svg" width="40" height="40" viewBox="0 0 40 40">
  <g id="Group_4" data-name="Group 4" transform="translate(-257)">
    <circle id="Oval" cx="20" cy="20" r="20" transform="translate(257)" fill="#bb53f2" opacity="0.2"/>
    <path id="Combined_Shape" data-name="Combined Shape" d="M3.214,13.215A4.286,4.286,0,1,1,7.5,17.5,4.291,4.291,0,0,1,3.214,13.215Zm4.643,1.428a1.071,1.071,0,1,0,1.071-1.071A1.073,1.073,0,0,0,7.857,14.643ZM5.1,15.1l.506.5,4.285-4.285-.5-.506ZM5,11.786a1.071,1.071,0,1,0,1.072-1.072A1.073,1.073,0,0,0,5,11.786Zm3.572,2.857A.357.357,0,1,1,8.929,15,.357.357,0,0,1,8.572,14.643ZM5.714,11.786a.357.357,0,1,1,.357.357A.358.358,0,0,1,5.714,11.786ZM10.7,5.161a1.034,1.034,0,0,0-.408-.167,1.035,1.035,0,0,0,.061-.35,1.111,1.111,0,0,0-.14-.532,1.6,1.6,0,0,1,.65-.086.821.821,0,0,0,.925-.779,1.516,1.516,0,0,1,.536-1.014,1.5,1.5,0,0,1,1.094-.35.84.84,0,0,0,.632-.185l.461.546a1.463,1.463,0,0,1-1.093.354.812.812,0,0,0-.925.775,1.505,1.505,0,0,1-.535,1.014,1.379,1.379,0,0,1-.571.3.671.671,0,0,0,.31.011.824.824,0,0,0,.55-.368,1.516,1.516,0,0,1,2.093-.371.822.822,0,0,0,.643.158l.122.7a1.48,1.48,0,0,1-1.121-.243.818.818,0,0,0-1.19.212,1.484,1.484,0,0,1-.971.61,1.644,1.644,0,0,1-.283.029A1.579,1.579,0,0,1,10.7,5.161ZM5.714,5a.357.357,0,1,1,0-.715H9.285a.357.357,0,0,1,0,.715Zm.22-1.429L4.464.63A1.938,1.938,0,0,0,5.045.279a.944.944,0,0,1,1.34,0,1.648,1.648,0,0,0,2.232,0,.942.942,0,0,1,1.338,0,1.908,1.908,0,0,0,.58.35L9.065,3.571Z" transform="translate(269 10)" fill="#bb53f2"/>
  </g>
</svg>
