<svg xmlns="http://www.w3.org/2000/svg" width="25.454" height="20" viewBox="0 0 25.454 20">
  <path id="Path" d="M25.188,6.63,18.825.266a.909.909,0,0,0-1.552.643V3.636H10.909a.909.909,0,1,0,0,1.818h7.273a.909.909,0,0,0,.909-.909V3.1L23.26,7.273l-4.169,4.169V10a.909.909,0,0,0-.909-.909h-10V6.363A.909.909,0,0,0,6.63,5.721L.266,12.084a.909.909,0,0,0,0,1.285L6.63,19.734A.909.909,0,0,0,7.273,20a.9.9,0,0,0,.348-.069.909.909,0,0,0,.561-.84V16.364h6.364a.909.909,0,1,0,0-1.818H7.273a.909.909,0,0,0-.909.909V16.9L2.194,12.727,6.364,8.558V10a.909.909,0,0,0,.909.909h10v2.727a.909.909,0,0,0,1.552.643l6.364-6.364A.909.909,0,0,0,25.188,6.63Z" fill="#fa4a84"/>
</svg>
