<svg id="Group_6" data-name="Group 6" xmlns="http://www.w3.org/2000/svg" width="15.3" height="14.025" viewBox="0 0 15.3 14.025">
  <path id="Combined_Shape" data-name="Combined Shape" d="M15.3,14.025H3.188A3.153,3.153,0,0,1,0,10.838V2.55A2.553,2.553,0,0,1,2.55,0H14.025V2.55H12.75V1.275H2.55a1.275,1.275,0,0,0,0,2.55H15.3v10.2h0ZM1.275,10.838A1.871,1.871,0,0,0,3.188,12.75H14.025V5.1H2.55a2.292,2.292,0,0,1-1.274-.383Zm7.65-1.912A1.275,1.275,0,1,1,10.2,10.2,1.278,1.278,0,0,1,8.925,8.925Z" fill="#818791"/>
</svg>
